<svg xmlns="http://www.w3.org/2000/svg" xmlns:xlink="http://www.w3.org/1999/xlink" width="800" zoomAndPan="magnify" viewBox="0 0 600 131.249995" height="175" preserveAspectRatio="xMidYMid meet" version="1.0"><defs><g/></defs><g fill="#2d3142" fill-opacity="1"><g transform="translate(14.766635, 93.716949)"><g><path d="M 21.71875 -25.90625 L 21.71875 0 L 6.5625 0 L 6.5625 -73.515625 L 35.25 -73.515625 C 40.769531 -73.515625 45.625 -72.503906 49.8125 -70.484375 C 54 -68.460938 57.21875 -65.59375 59.46875 -61.875 C 61.726562 -58.15625 62.859375 -53.921875 62.859375 -49.171875 C 62.859375 -41.972656 60.390625 -36.296875 55.453125 -32.140625 C 50.523438 -27.984375 43.703125 -25.90625 34.984375 -25.90625 Z M 21.71875 -38.171875 L 35.25 -38.171875 C 39.25 -38.171875 42.300781 -39.113281 44.40625 -41 C 46.507812 -42.882812 47.5625 -45.578125 47.5625 -49.078125 C 47.5625 -52.679688 46.5 -55.59375 44.375 -57.8125 C 42.257812 -60.03125 39.332031 -61.175781 35.59375 -61.25 L 21.71875 -61.25 Z M 21.71875 -38.171875 "/></g></g></g><g fill="#2d3142" fill-opacity="1"><g transform="translate(81.462502, 93.716949)"><g><path d="M 66.953125 -35.09375 C 66.953125 -27.851562 65.671875 -21.503906 63.109375 -16.046875 C 60.554688 -10.597656 56.894531 -6.390625 52.125 -3.421875 C 47.363281 -0.460938 41.90625 1.015625 35.75 1.015625 C 29.65625 1.015625 24.21875 -0.445312 19.4375 -3.375 C 14.65625 -6.3125 10.953125 -10.492188 8.328125 -15.921875 C 5.703125 -21.359375 4.375 -27.613281 4.34375 -34.6875 L 4.34375 -38.328125 C 4.34375 -45.554688 5.644531 -51.921875 8.25 -57.421875 C 10.863281 -62.929688 14.550781 -67.160156 19.3125 -70.109375 C 24.070312 -73.054688 29.515625 -74.53125 35.640625 -74.53125 C 41.773438 -74.53125 47.222656 -73.054688 51.984375 -70.109375 C 56.742188 -67.160156 60.425781 -62.929688 63.03125 -57.421875 C 65.644531 -51.921875 66.953125 -45.570312 66.953125 -38.375 Z M 51.609375 -38.421875 C 51.609375 -46.128906 50.226562 -51.984375 47.46875 -55.984375 C 44.707031 -59.992188 40.765625 -62 35.640625 -62 C 30.554688 -62 26.632812 -60.019531 23.875 -56.0625 C 21.113281 -52.113281 19.71875 -46.316406 19.6875 -38.671875 L 19.6875 -35.09375 C 19.6875 -27.582031 21.066406 -21.753906 23.828125 -17.609375 C 26.585938 -13.472656 30.5625 -11.40625 35.75 -11.40625 C 40.832031 -11.40625 44.734375 -13.398438 47.453125 -17.390625 C 50.179688 -21.378906 51.566406 -27.195312 51.609375 -34.84375 Z M 51.609375 -38.421875 "/></g></g></g><g fill="#2d3142" fill-opacity="1"><g transform="translate(152.853839, 93.716949)"><g><path d="M 33.78125 -26.90625 L 21.71875 -26.90625 L 21.71875 0 L 6.5625 0 L 6.5625 -73.515625 L 33.875 -73.515625 C 42.5625 -73.515625 49.257812 -71.578125 53.96875 -67.703125 C 58.6875 -63.835938 61.046875 -58.367188 61.046875 -51.296875 C 61.046875 -46.285156 59.957031 -42.101562 57.78125 -38.75 C 55.613281 -35.40625 52.328125 -32.738281 47.921875 -30.75 L 63.828125 -0.703125 L 63.828125 0 L 47.5625 0 Z M 21.71875 -39.1875 L 33.9375 -39.1875 C 37.738281 -39.1875 40.679688 -40.148438 42.765625 -42.078125 C 44.847656 -44.015625 45.890625 -46.6875 45.890625 -50.09375 C 45.890625 -53.550781 44.90625 -56.273438 42.9375 -58.265625 C 40.96875 -60.253906 37.945312 -61.25 33.875 -61.25 L 21.71875 -61.25 Z M 21.71875 -39.1875 "/></g></g></g><g fill="#2d3142" fill-opacity="1"><g transform="translate(218.842861, 93.716949)"><g><path d="M 61.90625 -61.25 L 39.390625 -61.25 L 39.390625 0 L 24.234375 0 L 24.234375 -61.25 L 2.015625 -61.25 L 2.015625 -73.515625 L 61.90625 -73.515625 Z M 61.90625 -61.25 "/></g></g></g><g fill="#2d3142" fill-opacity="1"><g transform="translate(282.812315, 93.716949)"><g><path d="M 50.796875 -30.046875 L 21.71875 -30.046875 L 21.71875 0 L 6.5625 0 L 6.5625 -73.515625 L 54.421875 -73.515625 L 54.421875 -61.25 L 21.71875 -61.25 L 21.71875 -42.265625 L 50.796875 -42.265625 Z M 50.796875 -30.046875 "/></g></g></g><g fill="#2d3142" fill-opacity="1"><g transform="translate(339.460887, 93.716949)"><g><path d="M 66.953125 -35.09375 C 66.953125 -27.851562 65.671875 -21.503906 63.109375 -16.046875 C 60.554688 -10.597656 56.894531 -6.390625 52.125 -3.421875 C 47.363281 -0.460938 41.90625 1.015625 35.75 1.015625 C 29.65625 1.015625 24.21875 -0.445312 19.4375 -3.375 C 14.65625 -6.3125 10.953125 -10.492188 8.328125 -15.921875 C 5.703125 -21.359375 4.375 -27.613281 4.34375 -34.6875 L 4.34375 -38.328125 C 4.34375 -45.554688 5.644531 -51.921875 8.25 -57.421875 C 10.863281 -62.929688 14.550781 -67.160156 19.3125 -70.109375 C 24.070312 -73.054688 29.515625 -74.53125 35.640625 -74.53125 C 41.773438 -74.53125 47.222656 -73.054688 51.984375 -70.109375 C 56.742188 -67.160156 60.425781 -62.929688 63.03125 -57.421875 C 65.644531 -51.921875 66.953125 -45.570312 66.953125 -38.375 Z M 51.609375 -38.421875 C 51.609375 -46.128906 50.226562 -51.984375 47.46875 -55.984375 C 44.707031 -59.992188 40.765625 -62 35.640625 -62 C 30.554688 -62 26.632812 -60.019531 23.875 -56.0625 C 21.113281 -52.113281 19.71875 -46.316406 19.6875 -38.671875 L 19.6875 -35.09375 C 19.6875 -27.582031 21.066406 -21.753906 23.828125 -17.609375 C 26.585938 -13.472656 30.5625 -11.40625 35.75 -11.40625 C 40.832031 -11.40625 44.734375 -13.398438 47.453125 -17.390625 C 50.179688 -21.378906 51.566406 -27.195312 51.609375 -34.84375 Z M 51.609375 -38.421875 "/></g></g></g><g fill="#2d3142" fill-opacity="1"><g transform="translate(410.852224, 93.716949)"><g><path d="M 21.71875 -12.171875 L 53.875 -12.171875 L 53.875 0 L 6.5625 0 L 6.5625 -73.515625 L 21.71875 -73.515625 Z M 21.71875 -12.171875 "/></g></g></g><g fill="#2d3142" fill-opacity="1"><g transform="translate(466.844428, 93.716949)"><g><path d="M 22.671875 0 L 7.515625 0 L 7.515625 -73.515625 L 22.671875 -73.515625 Z M 22.671875 0 "/></g></g></g><g fill="#2d3142" fill-opacity="1"><g transform="translate(496.986303, 93.716949)"><g><path d="M 66.953125 -35.09375 C 66.953125 -27.851562 65.671875 -21.503906 63.109375 -16.046875 C 60.554688 -10.597656 56.894531 -6.390625 52.125 -3.421875 C 47.363281 -0.460938 41.90625 1.015625 35.75 1.015625 C 29.65625 1.015625 24.21875 -0.445312 19.4375 -3.375 C 14.65625 -6.3125 10.953125 -10.492188 8.328125 -15.921875 C 5.703125 -21.359375 4.375 -27.613281 4.34375 -34.6875 L 4.34375 -38.328125 C 4.34375 -45.554688 5.644531 -51.921875 8.25 -57.421875 C 10.863281 -62.929688 14.550781 -67.160156 19.3125 -70.109375 C 24.070312 -73.054688 29.515625 -74.53125 35.640625 -74.53125 C 41.773438 -74.53125 47.222656 -73.054688 51.984375 -70.109375 C 56.742188 -67.160156 60.425781 -62.929688 63.03125 -57.421875 C 65.644531 -51.921875 66.953125 -45.570312 66.953125 -38.375 Z M 51.609375 -38.421875 C 51.609375 -46.128906 50.226562 -51.984375 47.46875 -55.984375 C 44.707031 -59.992188 40.765625 -62 35.640625 -62 C 30.554688 -62 26.632812 -60.019531 23.875 -56.0625 C 21.113281 -52.113281 19.71875 -46.316406 19.6875 -38.671875 L 19.6875 -35.09375 C 19.6875 -27.582031 21.066406 -21.753906 23.828125 -17.609375 C 26.585938 -13.472656 30.5625 -11.40625 35.75 -11.40625 C 40.832031 -11.40625 44.734375 -13.398438 47.453125 -17.390625 C 50.179688 -21.378906 51.566406 -27.195312 51.609375 -34.84375 Z M 51.609375 -38.421875 "/></g></g></g><g fill="#f0f2a6" fill-opacity="1"><g transform="translate(23.196976, 93.716949)"><g><path d="M 21.71875 -25.90625 L 21.71875 0 L 6.5625 0 L 6.5625 -73.515625 L 35.25 -73.515625 C 40.769531 -73.515625 45.625 -72.503906 49.8125 -70.484375 C 54 -68.460938 57.21875 -65.59375 59.46875 -61.875 C 61.726562 -58.15625 62.859375 -53.921875 62.859375 -49.171875 C 62.859375 -41.972656 60.390625 -36.296875 55.453125 -32.140625 C 50.523438 -27.984375 43.703125 -25.90625 34.984375 -25.90625 Z M 21.71875 -38.171875 L 35.25 -38.171875 C 39.25 -38.171875 42.300781 -39.113281 44.40625 -41 C 46.507812 -42.882812 47.5625 -45.578125 47.5625 -49.078125 C 47.5625 -52.679688 46.5 -55.59375 44.375 -57.8125 C 42.257812 -60.03125 39.332031 -61.175781 35.59375 -61.25 L 21.71875 -61.25 Z M 21.71875 -38.171875 "/></g></g></g><g fill="#f0f2a6" fill-opacity="1"><g transform="translate(89.892843, 93.716949)"><g><path d="M 66.953125 -35.09375 C 66.953125 -27.851562 65.671875 -21.503906 63.109375 -16.046875 C 60.554688 -10.597656 56.894531 -6.390625 52.125 -3.421875 C 47.363281 -0.460938 41.90625 1.015625 35.75 1.015625 C 29.65625 1.015625 24.21875 -0.445312 19.4375 -3.375 C 14.65625 -6.3125 10.953125 -10.492188 8.328125 -15.921875 C 5.703125 -21.359375 4.375 -27.613281 4.34375 -34.6875 L 4.34375 -38.328125 C 4.34375 -45.554688 5.644531 -51.921875 8.25 -57.421875 C 10.863281 -62.929688 14.550781 -67.160156 19.3125 -70.109375 C 24.070312 -73.054688 29.515625 -74.53125 35.640625 -74.53125 C 41.773438 -74.53125 47.222656 -73.054688 51.984375 -70.109375 C 56.742188 -67.160156 60.425781 -62.929688 63.03125 -57.421875 C 65.644531 -51.921875 66.953125 -45.570312 66.953125 -38.375 Z M 51.609375 -38.421875 C 51.609375 -46.128906 50.226562 -51.984375 47.46875 -55.984375 C 44.707031 -59.992188 40.765625 -62 35.640625 -62 C 30.554688 -62 26.632812 -60.019531 23.875 -56.0625 C 21.113281 -52.113281 19.71875 -46.316406 19.6875 -38.671875 L 19.6875 -35.09375 C 19.6875 -27.582031 21.066406 -21.753906 23.828125 -17.609375 C 26.585938 -13.472656 30.5625 -11.40625 35.75 -11.40625 C 40.832031 -11.40625 44.734375 -13.398438 47.453125 -17.390625 C 50.179688 -21.378906 51.566406 -27.195312 51.609375 -34.84375 Z M 51.609375 -38.421875 "/></g></g></g><g fill="#f0f2a6" fill-opacity="1"><g transform="translate(161.28418, 93.716949)"><g><path d="M 33.78125 -26.90625 L 21.71875 -26.90625 L 21.71875 0 L 6.5625 0 L 6.5625 -73.515625 L 33.875 -73.515625 C 42.5625 -73.515625 49.257812 -71.578125 53.96875 -67.703125 C 58.6875 -63.835938 61.046875 -58.367188 61.046875 -51.296875 C 61.046875 -46.285156 59.957031 -42.101562 57.78125 -38.75 C 55.613281 -35.40625 52.328125 -32.738281 47.921875 -30.75 L 63.828125 -0.703125 L 63.828125 0 L 47.5625 0 Z M 21.71875 -39.1875 L 33.9375 -39.1875 C 37.738281 -39.1875 40.679688 -40.148438 42.765625 -42.078125 C 44.847656 -44.015625 45.890625 -46.6875 45.890625 -50.09375 C 45.890625 -53.550781 44.90625 -56.273438 42.9375 -58.265625 C 40.96875 -60.253906 37.945312 -61.25 33.875 -61.25 L 21.71875 -61.25 Z M 21.71875 -39.1875 "/></g></g></g><g fill="#f0f2a6" fill-opacity="1"><g transform="translate(227.273202, 93.716949)"><g><path d="M 61.90625 -61.25 L 39.390625 -61.25 L 39.390625 0 L 24.234375 0 L 24.234375 -61.25 L 2.015625 -61.25 L 2.015625 -73.515625 L 61.90625 -73.515625 Z M 61.90625 -61.25 "/></g></g></g><g fill="#f0f2a6" fill-opacity="1"><g transform="translate(291.242657, 93.716949)"><g><path d="M 50.796875 -30.046875 L 21.71875 -30.046875 L 21.71875 0 L 6.5625 0 L 6.5625 -73.515625 L 54.421875 -73.515625 L 54.421875 -61.25 L 21.71875 -61.25 L 21.71875 -42.265625 L 50.796875 -42.265625 Z M 50.796875 -30.046875 "/></g></g></g><g fill="#f0f2a6" fill-opacity="1"><g transform="translate(347.891228, 93.716949)"><g><path d="M 66.953125 -35.09375 C 66.953125 -27.851562 65.671875 -21.503906 63.109375 -16.046875 C 60.554688 -10.597656 56.894531 -6.390625 52.125 -3.421875 C 47.363281 -0.460938 41.90625 1.015625 35.75 1.015625 C 29.65625 1.015625 24.21875 -0.445312 19.4375 -3.375 C 14.65625 -6.3125 10.953125 -10.492188 8.328125 -15.921875 C 5.703125 -21.359375 4.375 -27.613281 4.34375 -34.6875 L 4.34375 -38.328125 C 4.34375 -45.554688 5.644531 -51.921875 8.25 -57.421875 C 10.863281 -62.929688 14.550781 -67.160156 19.3125 -70.109375 C 24.070312 -73.054688 29.515625 -74.53125 35.640625 -74.53125 C 41.773438 -74.53125 47.222656 -73.054688 51.984375 -70.109375 C 56.742188 -67.160156 60.425781 -62.929688 63.03125 -57.421875 C 65.644531 -51.921875 66.953125 -45.570312 66.953125 -38.375 Z M 51.609375 -38.421875 C 51.609375 -46.128906 50.226562 -51.984375 47.46875 -55.984375 C 44.707031 -59.992188 40.765625 -62 35.640625 -62 C 30.554688 -62 26.632812 -60.019531 23.875 -56.0625 C 21.113281 -52.113281 19.71875 -46.316406 19.6875 -38.671875 L 19.6875 -35.09375 C 19.6875 -27.582031 21.066406 -21.753906 23.828125 -17.609375 C 26.585938 -13.472656 30.5625 -11.40625 35.75 -11.40625 C 40.832031 -11.40625 44.734375 -13.398438 47.453125 -17.390625 C 50.179688 -21.378906 51.566406 -27.195312 51.609375 -34.84375 Z M 51.609375 -38.421875 "/></g></g></g><g fill="#f0f2a6" fill-opacity="1"><g transform="translate(419.282565, 93.716949)"><g><path d="M 21.71875 -12.171875 L 53.875 -12.171875 L 53.875 0 L 6.5625 0 L 6.5625 -73.515625 L 21.71875 -73.515625 Z M 21.71875 -12.171875 "/></g></g></g><g fill="#f0f2a6" fill-opacity="1"><g transform="translate(475.274769, 93.716949)"><g><path d="M 22.671875 0 L 7.515625 0 L 7.515625 -73.515625 L 22.671875 -73.515625 Z M 22.671875 0 "/></g></g></g><g fill="#f0f2a6" fill-opacity="1"><g transform="translate(505.416645, 93.716949)"><g><path d="M 66.953125 -35.09375 C 66.953125 -27.851562 65.671875 -21.503906 63.109375 -16.046875 C 60.554688 -10.597656 56.894531 -6.390625 52.125 -3.421875 C 47.363281 -0.460938 41.90625 1.015625 35.75 1.015625 C 29.65625 1.015625 24.21875 -0.445312 19.4375 -3.375 C 14.65625 -6.3125 10.953125 -10.492188 8.328125 -15.921875 C 5.703125 -21.359375 4.375 -27.613281 4.34375 -34.6875 L 4.34375 -38.328125 C 4.34375 -45.554688 5.644531 -51.921875 8.25 -57.421875 C 10.863281 -62.929688 14.550781 -67.160156 19.3125 -70.109375 C 24.070312 -73.054688 29.515625 -74.53125 35.640625 -74.53125 C 41.773438 -74.53125 47.222656 -73.054688 51.984375 -70.109375 C 56.742188 -67.160156 60.425781 -62.929688 63.03125 -57.421875 C 65.644531 -51.921875 66.953125 -45.570312 66.953125 -38.375 Z M 51.609375 -38.421875 C 51.609375 -46.128906 50.226562 -51.984375 47.46875 -55.984375 C 44.707031 -59.992188 40.765625 -62 35.640625 -62 C 30.554688 -62 26.632812 -60.019531 23.875 -56.0625 C 21.113281 -52.113281 19.71875 -46.316406 19.6875 -38.671875 L 19.6875 -35.09375 C 19.6875 -27.582031 21.066406 -21.753906 23.828125 -17.609375 C 26.585938 -13.472656 30.5625 -11.40625 35.75 -11.40625 C 40.832031 -11.40625 44.734375 -13.398438 47.453125 -17.390625 C 50.179688 -21.378906 51.566406 -27.195312 51.609375 -34.84375 Z M 51.609375 -38.421875 "/></g></g></g><g fill="#ef8354" fill-opacity="1"><g transform="translate(23.196976, 100.301763)"><g><path d="M 21.71875 -25.90625 L 21.71875 0 L 6.5625 0 L 6.5625 -73.515625 L 35.25 -73.515625 C 40.769531 -73.515625 45.625 -72.503906 49.8125 -70.484375 C 54 -68.460938 57.21875 -65.59375 59.46875 -61.875 C 61.726562 -58.15625 62.859375 -53.921875 62.859375 -49.171875 C 62.859375 -41.972656 60.390625 -36.296875 55.453125 -32.140625 C 50.523438 -27.984375 43.703125 -25.90625 34.984375 -25.90625 Z M 21.71875 -38.171875 L 35.25 -38.171875 C 39.25 -38.171875 42.300781 -39.113281 44.40625 -41 C 46.507812 -42.882812 47.5625 -45.578125 47.5625 -49.078125 C 47.5625 -52.679688 46.5 -55.59375 44.375 -57.8125 C 42.257812 -60.03125 39.332031 -61.175781 35.59375 -61.25 L 21.71875 -61.25 Z M 21.71875 -38.171875 "/></g></g></g><g fill="#ef8354" fill-opacity="1"><g transform="translate(89.892843, 100.301763)"><g><path d="M 66.953125 -35.09375 C 66.953125 -27.851562 65.671875 -21.503906 63.109375 -16.046875 C 60.554688 -10.597656 56.894531 -6.390625 52.125 -3.421875 C 47.363281 -0.460938 41.90625 1.015625 35.75 1.015625 C 29.65625 1.015625 24.21875 -0.445312 19.4375 -3.375 C 14.65625 -6.3125 10.953125 -10.492188 8.328125 -15.921875 C 5.703125 -21.359375 4.375 -27.613281 4.34375 -34.6875 L 4.34375 -38.328125 C 4.34375 -45.554688 5.644531 -51.921875 8.25 -57.421875 C 10.863281 -62.929688 14.550781 -67.160156 19.3125 -70.109375 C 24.070312 -73.054688 29.515625 -74.53125 35.640625 -74.53125 C 41.773438 -74.53125 47.222656 -73.054688 51.984375 -70.109375 C 56.742188 -67.160156 60.425781 -62.929688 63.03125 -57.421875 C 65.644531 -51.921875 66.953125 -45.570312 66.953125 -38.375 Z M 51.609375 -38.421875 C 51.609375 -46.128906 50.226562 -51.984375 47.46875 -55.984375 C 44.707031 -59.992188 40.765625 -62 35.640625 -62 C 30.554688 -62 26.632812 -60.019531 23.875 -56.0625 C 21.113281 -52.113281 19.71875 -46.316406 19.6875 -38.671875 L 19.6875 -35.09375 C 19.6875 -27.582031 21.066406 -21.753906 23.828125 -17.609375 C 26.585938 -13.472656 30.5625 -11.40625 35.75 -11.40625 C 40.832031 -11.40625 44.734375 -13.398438 47.453125 -17.390625 C 50.179688 -21.378906 51.566406 -27.195312 51.609375 -34.84375 Z M 51.609375 -38.421875 "/></g></g></g><g fill="#ef8354" fill-opacity="1"><g transform="translate(161.28418, 100.301763)"><g><path d="M 33.78125 -26.90625 L 21.71875 -26.90625 L 21.71875 0 L 6.5625 0 L 6.5625 -73.515625 L 33.875 -73.515625 C 42.5625 -73.515625 49.257812 -71.578125 53.96875 -67.703125 C 58.6875 -63.835938 61.046875 -58.367188 61.046875 -51.296875 C 61.046875 -46.285156 59.957031 -42.101562 57.78125 -38.75 C 55.613281 -35.40625 52.328125 -32.738281 47.921875 -30.75 L 63.828125 -0.703125 L 63.828125 0 L 47.5625 0 Z M 21.71875 -39.1875 L 33.9375 -39.1875 C 37.738281 -39.1875 40.679688 -40.148438 42.765625 -42.078125 C 44.847656 -44.015625 45.890625 -46.6875 45.890625 -50.09375 C 45.890625 -53.550781 44.90625 -56.273438 42.9375 -58.265625 C 40.96875 -60.253906 37.945312 -61.25 33.875 -61.25 L 21.71875 -61.25 Z M 21.71875 -39.1875 "/></g></g></g><g fill="#ef8354" fill-opacity="1"><g transform="translate(227.273202, 100.301763)"><g><path d="M 61.90625 -61.25 L 39.390625 -61.25 L 39.390625 0 L 24.234375 0 L 24.234375 -61.25 L 2.015625 -61.25 L 2.015625 -73.515625 L 61.90625 -73.515625 Z M 61.90625 -61.25 "/></g></g></g><g fill="#ef8354" fill-opacity="1"><g transform="translate(291.242657, 100.301763)"><g><path d="M 50.796875 -30.046875 L 21.71875 -30.046875 L 21.71875 0 L 6.5625 0 L 6.5625 -73.515625 L 54.421875 -73.515625 L 54.421875 -61.25 L 21.71875 -61.25 L 21.71875 -42.265625 L 50.796875 -42.265625 Z M 50.796875 -30.046875 "/></g></g></g><g fill="#ef8354" fill-opacity="1"><g transform="translate(347.891228, 100.301763)"><g><path d="M 66.953125 -35.09375 C 66.953125 -27.851562 65.671875 -21.503906 63.109375 -16.046875 C 60.554688 -10.597656 56.894531 -6.390625 52.125 -3.421875 C 47.363281 -0.460938 41.90625 1.015625 35.75 1.015625 C 29.65625 1.015625 24.21875 -0.445312 19.4375 -3.375 C 14.65625 -6.3125 10.953125 -10.492188 8.328125 -15.921875 C 5.703125 -21.359375 4.375 -27.613281 4.34375 -34.6875 L 4.34375 -38.328125 C 4.34375 -45.554688 5.644531 -51.921875 8.25 -57.421875 C 10.863281 -62.929688 14.550781 -67.160156 19.3125 -70.109375 C 24.070312 -73.054688 29.515625 -74.53125 35.640625 -74.53125 C 41.773438 -74.53125 47.222656 -73.054688 51.984375 -70.109375 C 56.742188 -67.160156 60.425781 -62.929688 63.03125 -57.421875 C 65.644531 -51.921875 66.953125 -45.570312 66.953125 -38.375 Z M 51.609375 -38.421875 C 51.609375 -46.128906 50.226562 -51.984375 47.46875 -55.984375 C 44.707031 -59.992188 40.765625 -62 35.640625 -62 C 30.554688 -62 26.632812 -60.019531 23.875 -56.0625 C 21.113281 -52.113281 19.71875 -46.316406 19.6875 -38.671875 L 19.6875 -35.09375 C 19.6875 -27.582031 21.066406 -21.753906 23.828125 -17.609375 C 26.585938 -13.472656 30.5625 -11.40625 35.75 -11.40625 C 40.832031 -11.40625 44.734375 -13.398438 47.453125 -17.390625 C 50.179688 -21.378906 51.566406 -27.195312 51.609375 -34.84375 Z M 51.609375 -38.421875 "/></g></g></g><g fill="#ef8354" fill-opacity="1"><g transform="translate(419.282565, 100.301763)"><g><path d="M 21.71875 -12.171875 L 53.875 -12.171875 L 53.875 0 L 6.5625 0 L 6.5625 -73.515625 L 21.71875 -73.515625 Z M 21.71875 -12.171875 "/></g></g></g><g fill="#ef8354" fill-opacity="1"><g transform="translate(475.274769, 100.301763)"><g><path d="M 22.671875 0 L 7.515625 0 L 7.515625 -73.515625 L 22.671875 -73.515625 Z M 22.671875 0 "/></g></g></g><g fill="#ef8354" fill-opacity="1"><g transform="translate(505.416645, 100.301763)"><g><path d="M 66.953125 -35.09375 C 66.953125 -27.851562 65.671875 -21.503906 63.109375 -16.046875 C 60.554688 -10.597656 56.894531 -6.390625 52.125 -3.421875 C 47.363281 -0.460938 41.90625 1.015625 35.75 1.015625 C 29.65625 1.015625 24.21875 -0.445312 19.4375 -3.375 C 14.65625 -6.3125 10.953125 -10.492188 8.328125 -15.921875 C 5.703125 -21.359375 4.375 -27.613281 4.34375 -34.6875 L 4.34375 -38.328125 C 4.34375 -45.554688 5.644531 -51.921875 8.25 -57.421875 C 10.863281 -62.929688 14.550781 -67.160156 19.3125 -70.109375 C 24.070312 -73.054688 29.515625 -74.53125 35.640625 -74.53125 C 41.773438 -74.53125 47.222656 -73.054688 51.984375 -70.109375 C 56.742188 -67.160156 60.425781 -62.929688 63.03125 -57.421875 C 65.644531 -51.921875 66.953125 -45.570312 66.953125 -38.375 Z M 51.609375 -38.421875 C 51.609375 -46.128906 50.226562 -51.984375 47.46875 -55.984375 C 44.707031 -59.992188 40.765625 -62 35.640625 -62 C 30.554688 -62 26.632812 -60.019531 23.875 -56.0625 C 21.113281 -52.113281 19.71875 -46.316406 19.6875 -38.671875 L 19.6875 -35.09375 C 19.6875 -27.582031 21.066406 -21.753906 23.828125 -17.609375 C 26.585938 -13.472656 30.5625 -11.40625 35.75 -11.40625 C 40.832031 -11.40625 44.734375 -13.398438 47.453125 -17.390625 C 50.179688 -21.378906 51.566406 -27.195312 51.609375 -34.84375 Z M 51.609375 -38.421875 "/></g></g></g></svg>